REM DIRINDEX 1\2\6,1\2\7,1\2\8,1\3\9,1\3\10,1\3\11,1\4\12,1\4\13,1\4\14,1\5\15,1\5\16,1\5\17,1\5\18
REM DIRNAME folder01,folder02,folder03,folder04,folder05,folder06,folder07,folder08,folder09,folder10,folder11,folder12,folder13,folder14,folder15,folder16,folder17,folder18
TITLE ""
FILE "" MP3
  TRACK 01 AUDIO
    TITLE "16:cjc019_6799"
    INDEX 01 00:00:00
  TRACK 02 AUDIO
    TITLE "0:"
    INDEX 01 00:01:15
  TRACK 03 AUDIO
    TITLE "18:cjc019_6800"
    INDEX 01 00:01:73
  TRACK 04 AUDIO
    TITLE "0:"
    INDEX 01 00:05:01
  TRACK 05 AUDIO
    TITLE "17:cjc019_6801"
    INDEX 01 00:05:54
  TRACK 06 AUDIO
    TITLE "0:"
    INDEX 01 00:06:73
  TRACK 07 AUDIO
    TITLE "16:cjc019_6802"
    INDEX 01 00:08:60
  TRACK 08 AUDIO
    TITLE "0:"
    INDEX 01 00:10:35
  TRACK 09 AUDIO
    TITLE "18:cjc019_6803"
    INDEX 01 00:11:15
  TRACK 10 AUDIO
    TITLE "0:"
    INDEX 01 00:14:09
  TRACK 11 AUDIO
    TITLE "17:cjc019_6804"
    INDEX 01 00:14:51
  TRACK 12 AUDIO
    TITLE "0:"
    INDEX 01 00:16:22
  TRACK 13 AUDIO
    TITLE "16:cjc019_6805"
    INDEX 01 00:18:05
  TRACK 14 AUDIO
    TITLE "0:"
    INDEX 01 00:19:46
  TRACK 15 AUDIO
    TITLE "18:cjc019_6806"
    INDEX 01 00:20:26
  TRACK 16 AUDIO
    TITLE "0:"
    INDEX 01 00:21:39
  TRACK 17 AUDIO
    TITLE "17:cjc019_6807"
    INDEX 01 00:22:17
  TRACK 18 AUDIO
    TITLE "0:"
    INDEX 01 00:23:59
  TRACK 19 AUDIO
    TITLE "16:cjc019_6808"
    INDEX 01 00:25:39
  TRACK 20 AUDIO
    TITLE "0:"
    INDEX 01 00:26:60
  TRACK 21 AUDIO
    TITLE "18:cjc019_6809"
    INDEX 01 00:27:43
  TRACK 22 AUDIO
    TITLE "0:"
    INDEX 01 00:30:65
  TRACK 23 AUDIO
    TITLE "17:cjc019_6810"
    INDEX 01 00:31:41
  TRACK 24 AUDIO
    TITLE "0:"
    INDEX 01 00:32:62
  TRACK 25 AUDIO
    TITLE "16:cjc019_6811"
    INDEX 01 00:34:40
  TRACK 26 AUDIO
    TITLE "0:"
    INDEX 01 00:36:03
  TRACK 27 AUDIO
    TITLE "18:cjc019_6812"
    INDEX 01 00:36:60
  TRACK 28 AUDIO
    TITLE "0:"
    INDEX 01 00:38:30
  TRACK 29 AUDIO
    TITLE "17:cjc019_6813"
    INDEX 01 00:39:05
  TRACK 30 AUDIO
    TITLE "0:"
    INDEX 01 00:40:38
  TRACK 31 AUDIO
    TITLE "16:cjc019_6814"
    INDEX 01 00:42:18
  TRACK 32 AUDIO
    TITLE "0:"
    INDEX 01 00:43:40
  TRACK 33 AUDIO
    TITLE "18:cjc019_6815"
    INDEX 01 00:44:20
  TRACK 34 AUDIO
    TITLE "0:"
    INDEX 01 00:47:01
  TRACK 35 AUDIO
    TITLE "17:cjc019_6816"
    INDEX 01 00:47:54
  TRACK 36 AUDIO
    TITLE "0:"
    INDEX 01 00:49:00
  TRACK 37 AUDIO
    TITLE "16:cjc019_6817"
    INDEX 01 00:50:62
  TRACK 38 AUDIO
    TITLE "0:"
    INDEX 01 00:52:02
  TRACK 39 AUDIO
    TITLE "18:cjc019_6818"
    INDEX 01 00:52:53
  TRACK 40 AUDIO
    TITLE "0:"
    INDEX 01 00:56:25
  TRACK 41 AUDIO
    TITLE "17:cjc019_6819"
    INDEX 01 00:57:07
  TRACK 42 AUDIO
    TITLE "0:"
    INDEX 01 00:58:26
  TRACK 43 AUDIO
    TITLE "16:cjc019_6820"
    INDEX 01 01:00:10
  TRACK 44 AUDIO
    TITLE "0:"
    INDEX 01 01:01:27
  TRACK 45 AUDIO
    TITLE "18:cjc019_6821"
    INDEX 01 01:02:08
  TRACK 46 AUDIO
    TITLE "0:"
    INDEX 01 01:04:37
  TRACK 47 AUDIO
    TITLE "17:cjc019_6822"
    INDEX 01 01:05:15
  TRACK 48 AUDIO
    TITLE "0:"
    INDEX 01 01:06:30
  TRACK 49 AUDIO
    TITLE "16:cjc019_6823"
    INDEX 01 01:08:13
  TRACK 50 AUDIO
    TITLE "0:"
    INDEX 01 01:09:34
  TRACK 51 AUDIO
    TITLE "18:cjc019_6824"
    INDEX 01 01:10:14
  TRACK 52 AUDIO
    TITLE "0:"
    INDEX 01 01:11:60
  TRACK 53 AUDIO
    TITLE "17:cjc019_6825"
    INDEX 01 01:12:42
  TRACK 54 AUDIO
    TITLE "0:"
    INDEX 01 01:13:61
  TRACK 55 AUDIO
    TITLE "16:cjc019_6826"
    INDEX 01 01:15:40
  TRACK 56 AUDIO
    TITLE "0:"
    INDEX 01 01:16:61
  TRACK 57 AUDIO
    TITLE "18:cjc019_6827"
    INDEX 01 01:17:41
  TRACK 58 AUDIO
    TITLE "0:"
    INDEX 01 01:20:06
  TRACK 59 AUDIO
    TITLE "17:cjc019_6828"
    INDEX 01 01:20:57
  TRACK 60 AUDIO
    TITLE "0:"
    INDEX 01 01:22:01
  TRACK 61 AUDIO
    TITLE "16:cjc019_6829"
    INDEX 01 01:23:60
  TRACK 62 AUDIO
    TITLE "0:"
    INDEX 01 01:25:27
  TRACK 63 AUDIO
    TITLE "18:cjc019_6830"
    INDEX 01 01:26:09
  TRACK 64 AUDIO
    TITLE "0:"
    INDEX 01 01:27:24
  TRACK 65 AUDIO
    TITLE "17:cjc019_6831"
    INDEX 01 01:28:00
  TRACK 66 AUDIO
    TITLE "0:"
    INDEX 01 01:29:43
  TRACK 67 AUDIO
    TITLE "16:cjc019_6832"
    INDEX 01 01:31:24
  TRACK 68 AUDIO
    TITLE "0:"
    INDEX 01 01:32:47
  TRACK 69 AUDIO
    TITLE "18:cjc019_6833"
    INDEX 01 01:33:29
  TRACK 70 AUDIO
    TITLE "0:"
    INDEX 01 01:35:63
  TRACK 71 AUDIO
    TITLE "17:cjc019_6834"
    INDEX 01 01:36:47
  TRACK 72 AUDIO
    TITLE "0:"
    INDEX 01 01:37:71
  TRACK 73 AUDIO
    TITLE "16:cjc019_6835"
    INDEX 01 01:39:57
  TRACK 74 AUDIO
    TITLE "0:"
    INDEX 01 01:41:14
  TRACK 75 AUDIO
    TITLE "18:cjc019_6836"
    INDEX 01 01:41:73
  TRACK 76 AUDIO
    TITLE "0:"
    INDEX 01 01:44:28
  TRACK 77 AUDIO
    TITLE "17:cjc019_6837"
    INDEX 01 01:45:02
  TRACK 78 AUDIO
    TITLE "0:"
    INDEX 01 01:46:35
  TRACK 79 AUDIO
    TITLE "16:cjc019_6838"
    INDEX 01 01:48:16
  TRACK 80 AUDIO
    TITLE "0:"
    INDEX 01 01:49:41
  TRACK 81 AUDIO
    TITLE "18:cjc019_6839"
    INDEX 01 01:50:21
  TRACK 82 AUDIO
    TITLE "0:"
    INDEX 01 01:53:02
  TRACK 83 AUDIO
    TITLE "17:cjc019_6840"
    INDEX 01 01:53:53
  TRACK 84 AUDIO
    TITLE "0:"
    INDEX 01 01:55:03
  TRACK 85 AUDIO
    TITLE "16:cjc019_6841"
    INDEX 01 01:56:59
  TRACK 86 AUDIO
    TITLE "0:"
    INDEX 01 01:57:70
  TRACK 87 AUDIO
    TITLE "18:cjc019_6842"
    INDEX 01 01:58:50
  TRACK 88 AUDIO
    TITLE "0:"
    INDEX 01 02:01:19
  TRACK 89 AUDIO
    TITLE "17:cjc019_6843"
    INDEX 01 02:02:01
  TRACK 90 AUDIO
    TITLE "0:"
    INDEX 01 02:03:12
  TRACK 91 AUDIO
    TITLE "16:cjc019_6844"
    INDEX 01 02:04:62
  TRACK 92 AUDIO
    TITLE "0:"
    INDEX 01 02:06:06
  TRACK 93 AUDIO
    TITLE "18:cjc019_6845"
    INDEX 01 02:06:57
  TRACK 94 AUDIO
    TITLE "0:"
    INDEX 01 02:09:73
  TRACK 95 AUDIO
    TITLE "17:cjc019_6846"
    INDEX 01 02:10:51
  TRACK 96 AUDIO
    TITLE "0:"
    INDEX 01 02:12:01
  TRACK 97 AUDIO
    TITLE "16:cjc019_6847"
    INDEX 01 02:13:57
  TRACK 98 AUDIO
    TITLE "0:"
    INDEX 01 02:15:19
  TRACK 99 AUDIO
    TITLE "18:cjc019_6848"
    INDEX 01 02:15:72
  TRACK 100 AUDIO
    TITLE "0:"
    INDEX 01 02:18:35
  TRACK 101 AUDIO
    TITLE "17:cjc019_6849"
    INDEX 01 02:19:05
  TRACK 102 AUDIO
    TITLE "0:"
    INDEX 01 02:20:38
  TRACK 103 AUDIO
    TITLE "16:cjc019_6850"
    INDEX 01 02:22:23
  TRACK 104 AUDIO
    TITLE "0:"
    INDEX 01 02:23:48
  TRACK 105 AUDIO
    TITLE "18:cjc019_6851"
    INDEX 01 02:24:30
  TRACK 106 AUDIO
    TITLE "0:"
    INDEX 01 02:27:26
  TRACK 107 AUDIO
    TITLE "17:cjc019_6852"
    INDEX 01 02:28:00
  TRACK 108 AUDIO
    TITLE "0:"
    INDEX 01 02:29:25
